<svg xmlns="http://www.w3.org/2000/svg" xmlns:xlink="http://www.w3.org/1999/xlink" width="21px" height="13px" viewBox="0 0 21 13" version="1.1" class="cat-nav-img">
<title>Lunchbox/package Copy</title>
<g id="Web" stroke="none" stroke-width="1" fill="none" fill-rule="evenodd">
<g id="outlined" transform="translate(-708.000000, -194.000000)" fill="#6B6B6B" fill-rule="nonzero">
<g id="Lunchbox/package-Copy" transform="translate(708.000000, 194.000000)">
<path d="M17.7136962,0.755748077 C17.8547843,0.755748077 17.9795306,0.840014451 18.0343484,0.965373565 L18.0556818,1.03127764 L19.0787692,5.76274808 L20.1443328,5.76286348 C20.3376325,5.76291983 20.4942308,5.91966585 20.4942308,6.1129655 C20.4942308,6.2821027 20.3741666,6.42318356 20.214668,6.45577326 L20.1441287,6.46286345 L19.0937692,6.46274808 L18.0577787,12.0259896 C18.0313195,12.1680468 17.921281,12.2766354 17.7842179,12.3047616 L17.7136962,12.3119019 L3.53638846,12.3119019 C3.39054026,12.3119019 3.26280487,12.2219929 3.21092085,12.0907362 L3.19156709,12.0218871 L2.22876925,6.45774808 L1.10566716,6.45863268 C0.936529963,6.45858335 0.79544911,6.33856851 0.762859431,6.1790699 L0.755769246,6.10853062 C0.755769246,5.93939342 0.875833416,5.79831257 1.03533202,5.76572289 L1.1058713,5.75863271 L2.23276925,5.75774808 L3.19341015,1.03599223 C3.22183821,0.896216006 3.33125553,0.790162502 3.46673259,0.762714077 L3.53638846,0.755748077 L17.7136962,0.755748077 Z M2.93476925,6.45874808 L3.831,11.611 L17.423,11.611 L18.3877692,6.46174808 L13.116,6.46 L13.0570843,6.57717254 C12.6079767,7.39510703 11.7681985,7.94361836 10.8167055,8.00898722 L10.625,8.01555577 C9.59394357,8.01555577 8.67004126,7.44988769 8.19084711,6.57725644 L8.131,6.46 L2.93476925,6.45874808 Z M17.431,1.455 L3.822,1.455 L2.94076925,5.75874808 L8.35952515,5.76074809 C8.50440764,5.76079034 8.63428749,5.85009411 8.68619187,5.98536005 C8.99121091,6.78025817 9.75709825,7.31555577 10.625,7.31555577 C11.4910516,7.31555577 12.2567652,6.78001967 12.5616927,5.98536005 C12.6049687,5.87258039 12.702447,5.79175696 12.8176249,5.76797304 L12.8885636,5.76074809 L18.3687692,5.76274808 L17.431,1.455 Z" id="Combined-Shape"></path>
</g>
</g></g></svg>