<svg xmlns="http://www.w3.org/2000/svg" xmlns:xlink="http://www.w3.org/1999/xlink" width="19px" height="16px" viewBox="0 0 19 16" version="1.1" class="cat-nav-img">
<title>Burger</title>
<g id="Web" stroke="none" stroke-width="1" fill="none" fill-rule="evenodd">
<g id="outlined" transform="translate(-452.000000, -273.000000)" fill="#6B6B6B" fill-rule="nonzero">
<g id="Burger" transform="translate(453.000000, 274.000000)">
<path d="M9.05469767,-0.320155039 C4.59611397,-0.320155039 1.14056391,2.33719294 0.741994374,6.09924979 L0.686500981,6.73627907 L17.3612035,6.73627907 L17.3361943,6.36288888 C17.0755597,2.47159145 13.5952024,-0.320155039 9.05469767,-0.320155039 Z M9.32667089,0.383417643 C13.2033158,0.485604223 16.1376053,2.76994764 16.5907824,5.95894956 L16.6,6.036 L1.454,6.036 L1.43872893,6.16646491 C1.7962799,2.79216228 4.93319811,0.379844961 9.05469767,0.379844961 L9.32667089,0.383417643 Z" id="Path"></path>
<path d="M7.74759931,3.65064027 L7.19185749,3.67397268 C6.89375533,3.68655325 6.61480807,3.87982585 6.65290061,4.20687034 C6.6875418,4.50428313 6.96955111,4.65195167 7.25234367,4.64006107 L7.80808549,4.61672865 C8.10726934,4.60414885 8.38696565,4.41061158 8.34681017,4.08188488 C8.31240118,3.7864182 8.03039187,3.63874967 7.74759931,3.65064027 Z" id="Path"></path>
<path d="M10.7475993,3.65064027 L10.1918575,3.67397268 C9.89375533,3.68655325 9.61480807,3.87982585 9.65290061,4.20687034 C9.6875418,4.50428313 9.96955111,4.65195167 10.2523437,4.64006107 L10.8080855,4.61672865 C11.1072693,4.60414885 11.3869657,4.41061158 11.3468102,4.08188488 C11.3124012,3.7864182 11.0303919,3.63874967 10.7475993,3.65064027 Z" id="Path-Copy" transform="translate(10.500035, 4.149975) rotate(41.000000) translate(-10.500035, -4.149975) "></path>
<path d="M6.48067906,1.698939 L5.97631108,1.89485326 C5.63429535,2.02763342 5.50933117,2.44221704 5.83671998,2.68776779 C6.01897473,2.82446394 6.30094759,2.84921223 6.51932094,2.76443353 L7.02368892,2.56851928 C7.36570465,2.43573911 7.49066883,2.02115549 7.16328002,1.77560475 C6.98102527,1.6389086 6.69905241,1.6141603 6.48067906,1.698939 Z" id="Path"></path>
<path d="M3.9003852,3.7363152 C3.54545752,3.93234238 3.57736726,4.37869403 3.93318311,4.54768446 L4.41150521,4.77565776 C4.6183175,4.87388111 4.90230916,4.86882312 5.10026521,4.75894225 C5.45436888,4.5623874 5.42253135,4.11660407 5.06681689,3.9476618 L4.58806393,3.71948351 C4.38192464,3.62158015 4.09819105,3.62706669 3.9003852,3.7363152 Z" id="Path"></path>
<path d="M8.91382537,1.70398734 C8.67277201,1.8274869 8.57856728,2.12376465 8.70822183,2.36296767 L8.8296572,2.58687868 C8.9566726,2.82024115 9.24750928,2.90794303 9.4827739,2.78740923 C9.72382725,2.66390967 9.81803199,2.36763192 9.68837743,2.12842891 L9.56698208,1.9045917 C9.44032295,1.67091501 9.14917141,1.58341183 8.91382537,1.70398734 Z" id="Path"></path>
<path d="M11.7430954,1.65 L11.2569046,1.65 C10.9472495,1.65 10.65,1.80476559 10.65,2.13375969 C10.65,2.46275379 10.9472495,2.61751938 11.2569046,2.61751938 L11.7430954,2.61751938 C12.0529459,2.61751938 12.35,2.46307213 12.35,2.13375969 C12.35,1.80476559 12.0527505,1.65 11.7430954,1.65 Z" id="Path"></path>
<path d="M12.7955578,3.7888577 C12.6013723,3.97863252 12.6013723,4.2898041 12.7962086,4.47922833 L12.9801156,4.65802678 C13.1698295,4.84247084 13.4731688,4.84217856 13.6625821,4.65802678 C13.8575269,4.4684971 13.8575269,4.15655148 13.6625821,3.96702181 L13.4780228,3.78759079 C13.2882758,3.60407038 12.9849391,3.6037781 12.7955578,3.7888577 Z" id="Path"></path>
<path d="M16.3908837,7.62728682 L1.06827907,7.62728682 C0.292221359,7.62728682 -0.341069767,8.24298653 -0.341069767,9.0072093 C-0.341069767,9.77143208 0.292221359,10.3871318 1.06827907,10.3871318 L16.3908837,10.3871318 C17.1669414,10.3871318 17.8002326,9.77143208 17.8002326,9.0072093 C17.8002326,8.24298653 17.1669414,7.62728682 16.3908837,7.62728682 Z M1.06827907,8.32728682 L16.3908837,8.32728682 C16.7846865,8.32728682 17.1002326,8.63406774 17.1002326,9.0072093 C17.1002326,9.38035087 16.7846865,9.68713178 16.3908837,9.68713178 L1.06827907,9.68713178 C0.674476315,9.68713178 0.358930233,9.38035087 0.358930233,9.0072093 C0.358930233,8.63406774 0.674476315,8.32728682 1.06827907,8.32728682 Z" id="Path"></path>
<path d="M10.9026977,10.8196124 C10.3776214,10.8196124 10.0775463,11.0490018 9.91611346,11.4139344 L9.86773898,11.5391781 L9.80810725,11.7236292 C9.78569883,11.7911969 9.76564544,11.8445769 9.74358303,11.8936666 C9.61980611,12.1690748 9.43407566,12.2993798 9.01339535,12.2993798 C8.5726418,12.2993798 8.29317265,12.1178547 8.11030456,11.7981301 C7.9943634,11.5954197 7.94241453,11.3871405 7.93153173,11.2636848 L7.90338794,10.9444186 L1.59851163,10.9444186 C1.02487623,10.9433775 0.671116757,11.5709782 0.986521331,12.0522379 L1.90417665,13.4512653 C2.26299212,13.9977503 2.88121983,14.3272093 3.54418605,14.3272093 L14.6009302,14.3272093 C15.227632,14.3272093 15.8165438,14.0324259 16.1832962,13.5340305 L17.0660906,12.0552395 C17.3987464,11.6056284 17.0485897,10.943876 16.4573023,10.943876 L14.2847981,10.943876 L14.24259,11.2453468 C14.2218154,11.3937296 14.1530464,11.6367489 14.017926,11.874253 C13.8076147,12.2439217 13.5124886,12.4507752 13.0855814,12.4507752 C12.4482777,12.4507752 12.1733892,12.2989125 12.0280423,11.9865581 L11.9697743,11.8368948 L11.8926432,11.54441 C11.7796748,11.1091537 11.4865847,10.8196124 10.9026977,10.8196124 Z M14.8389903,11.7441862 L14.868,11.643 L16.4573023,11.643876 C16.482196,11.643876 16.4903728,11.6593289 16.4834248,11.6687774 L15.6007001,13.1474737 C15.3852978,13.4374076 15.0061162,13.6272093 14.6009302,13.6272093 L3.54418605,13.6272093 C3.11563228,13.6272093 2.71795325,13.4152826 2.4894086,13.0672034 L1.57191637,11.6684246 L1.57062616,11.6580293 C1.57302494,11.6509066 1.58199721,11.6443892 1.59787678,11.644418 L7.294,11.644 L7.3100674,11.7016171 C7.35296992,11.8416605 7.41533462,11.9929683 7.50267218,12.1456684 C7.80416456,12.6727945 8.30696285,12.9993798 9.01339535,12.9993798 C9.72053664,12.9993798 10.1492742,12.6985855 10.382064,12.1806196 L10.428753,12.0677334 L10.5359547,11.7485806 C10.5949869,11.5809769 10.6635553,11.5196124 10.9026977,11.5196124 C11.0956497,11.5196124 11.157999,11.5539759 11.1971384,11.6611302 L11.3127293,12.0802268 C11.3192479,12.0985206 11.3268099,12.1183881 11.3376929,12.1478289 C11.576732,12.79448 12.106649,13.1507752 13.0855814,13.1507752 C13.7897439,13.1507752 14.3008504,12.7925414 14.6263531,12.2203982 C14.7195371,12.0566066 14.7889136,11.8941938 14.8389903,11.7441862 Z" id="Path"></path>
</g>
</g>
</g>
</svg>