<svg xmlns="http://www.w3.org/2000/svg" xmlns:xlink="http://www.w3.org/1999/xlink" width="16px" height="16px" viewBox="0 0 16 16" version="1.1" class="cat-nav-img">
<title>Chicken</title>
<g id="Web" stroke="none" stroke-width="1" fill="none" fill-rule="evenodd">
<g id="outlined" transform="translate(-291.000000, -273.000000)" fill="#6B6B6B" fill-rule="nonzero">
<g id="Chicken" transform="translate(292.000000, 274.000000)">
<path d="M1.82383111,3.03477996 L1.89319174,3.0494484 C2.07734347,3.10820977 2.17899245,3.30512975 2.12023108,3.48928148 C2.02693499,3.7816613 2.00294157,4.0901068 2.05285871,4.39929561 C2.15504908,5.02946956 2.43735295,5.61758496 2.84689125,6.05683486 C2.97870944,6.19821634 2.97095687,6.41968843 2.8295754,6.55150663 C2.68819392,6.68332483 2.46672182,6.67557226 2.33490362,6.53419078 C1.82948362,5.99210305 1.48595387,5.27643756 1.36184585,4.51110422 C1.29424483,4.09238151 1.32687841,3.67286308 1.45335866,3.27648775 C1.50477486,3.11535498 1.66196874,3.01738839 1.82383111,3.03477996 Z" id="Path"></path>
<path d="M-0.280445515,4.532295 C0.130996096,7.07840435 1.89808982,8.94060886 4.35898206,9.17736573 L4.61003184,9.18846371 C5.4126728,9.24258011 6.2208556,9.52177243 6.98960844,9.95476244 C7.29434221,10.1263998 7.57132776,10.3103938 7.81462955,10.4939659 L8.02458705,10.6592332 C8.05994878,10.6885484 8.08759751,10.7125109 8.10716792,10.7302968 C8.24541289,10.8559357 8.45795906,10.8508618 8.59005148,10.7187694 L10.7340258,8.57479507 C10.8707248,8.43809612 10.8707071,8.21645788 10.7339863,8.07978078 C10.3514085,7.69732518 10.0329036,7.17682176 9.77646517,6.55187934 C9.5644814,6.03527325 9.40683739,5.47827764 9.29637201,4.92079344 C9.23016884,4.58668679 9.1946848,4.32866656 9.18153921,4.1858651 C8.88276764,1.69391178 6.84148388,-0.120625271 4.38159289,-0.329012882 C1.58969446,-0.564988993 -0.714945498,1.84598161 -0.280445515,4.532295 Z M4.32257125,0.368494423 C6.46297146,0.549816645 8.22879788,2.11949428 8.4855038,4.25963184 L8.50819166,4.45570041 C8.52915924,4.61198509 8.56220857,4.81706602 8.60972231,5.05685294 C8.72837986,5.65568045 8.89800165,6.25499655 9.12886599,6.81761472 L9.24085631,7.07664649 C9.43357682,7.49978816 9.65686717,7.87947004 9.91402821,8.20714135 L10.003,8.315 L8.319,9.999 L8.23623853,9.9351763 C7.96918329,9.73368207 7.6664879,9.5326097 7.3331327,9.34485172 C6.4801988,8.86444782 5.57564353,8.55196297 4.64828272,8.48956443 L4.40725386,8.47928546 C2.29992123,8.27603604 0.773704241,6.66767304 0.410581865,4.4205759 C0.0593922779,2.24933231 1.87657485,0.279697432 4.13357361,0.357258226 L4.32257125,0.368494423 Z" id="Path"></path>
<path d="M10.613557,9.2072463 C10.7286859,9.0880951 10.9079227,9.06827856 11.0443233,9.1496328 L11.1084588,9.19874932 L12.089,10.146 L12.1619964,10.1046988 C12.3295039,10.0164493 12.5137872,9.96054563 12.706114,9.94171413 L12.8517308,9.93461538 C13.6697367,9.93461538 14.3329487,10.5980091 14.3329487,11.4162821 C14.3329487,12.1860844 13.7453863,12.8189294 12.9943602,12.890718 L12.899,12.895 L12.8943077,13.0061015 C12.8270044,13.7105392 12.2665648,14.2709788 11.5621271,14.3382821 L11.4194231,14.3450641 C10.6014172,14.3450641 9.93820513,13.6816703 9.93820513,12.8633974 C9.93820513,12.5912943 10.0120002,12.3310273 10.1460146,12.1059027 L10.197,12.029 L8.46827242,10.3533148 C8.34929719,10.2380041 8.32975442,10.0587372 8.4113169,9.92246104 L8.46053132,9.85840062 C8.57584201,9.7394254 8.75510891,9.71988263 8.89138511,9.80144511 L8.95544553,9.85065953 L10.9221763,11.7568134 C11.0511601,11.8818244 11.0622063,12.0800332 10.9590334,12.2177083 L10.9078343,12.2726158 C10.73747,12.4202862 10.6382051,12.6331259 10.6382051,12.8633974 C10.6382051,13.2951139 10.9880594,13.6450641 11.4194231,13.6450641 C11.8511875,13.6450641 12.2010897,13.2951619 12.2010897,12.8633974 C12.2010897,12.8032701 12.1944231,12.7445407 12.181385,12.6878584 L12.1446357,12.5605456 L12.1369231,12.4873718 C12.1369231,12.2069231 12.3889231,12.0949231 12.5905231,12.1509231 L12.621,12.162 L12.6813885,12.1789865 C12.7089877,12.1851168 12.7370182,12.1897452 12.7654265,12.192841 L12.8517308,12.1975 C13.2830465,12.1975 13.6329487,11.8475978 13.6329487,11.4162821 C13.6329487,10.9845655 13.2830944,10.6346154 12.8517308,10.6346154 C12.6860911,10.6346154 12.5292536,10.6860312 12.3986965,10.7792454 L12.3059793,10.856843 C12.1898554,10.9701596 12.0145452,10.9867391 11.8811013,10.9063323 L11.818336,10.8580455 L10.622054,9.70214811 C10.4830443,9.56783113 10.47924,9.34625604 10.613557,9.2072463 Z" id="Path"></path>
</g></g></g></svg>