<svg xmlns="http://www.w3.org/2000/svg" xmlns:xlink="http://www.w3.org/1999/xlink" width="19px" height="16px" viewBox="0 0 19 16" version="1.1" class="cat-nav-img">
<title>Burger menu 4</title>
<g id="Web" stroke="none" stroke-width="1" fill="none" fill-rule="evenodd">
<g id="outlined" transform="translate(-346.000000, -259.000000)" fill-rule="nonzero">
<g id="Burger-menu-4" transform="translate(346.000000, 259.000000)">
<g id="Burger-Copy-2" fill="#6B6B6B">
<path d="M8.90338794,11.9444186 L8.93153173,12.2636848 C8.94241453,12.3871405 8.9943634,12.5954197 9.11030456,12.7981301 C9.2912993,13.1145794 9.56692601,13.2956462 9.99990044,13.2993227 L9.99993023,13.9979763 L9.84102826,13.9926489 C9.22456109,13.9435563 8.77904019,13.6288673 8.50267218,13.1456684 C8.44444714,13.0438683 8.39732115,12.9426871 8.35966142,12.8450497 L8.3100674,12.7016171 L8.294,12.644 L2.59787678,12.644418 L2.57919618,12.6485419 L2.57919618,12.6485419 L2.57062616,12.6580293 L2.57191637,12.6684246 L3.4894086,14.0672034 C3.6925594,14.3766072 4.02934724,14.5784336 4.40266796,14.6194641 L4.54418605,14.6272093 L9.99993023,14.6269763 L9.99993023,15.3269763 L4.54418605,15.3272093 C3.93646702,15.3272093 3.36634075,15.0503722 2.99916071,14.5833001 L2.90417665,14.4512653 L1.98652133,13.0522379 C1.68966997,12.5992876 1.98557292,12.0167065 2.49965575,11.9506028 L2.59851163,11.9444186 L8.90338794,11.9444186 Z M9.99993023,8.62697626 L9.99993023,9.32697626 L2.06827907,9.32728682 C1.67447632,9.32728682 1.35893023,9.63406774 1.35893023,10.0072093 C1.35893023,10.3492557 1.62407659,10.6355408 1.97159605,10.6808796 L2.06827907,10.6871318 L9.99993023,10.6869763 L9.99993023,11.3869763 L2.06827907,11.3871318 C1.29222136,11.3871318 0.658930233,10.7714321 0.658930233,10.0072093 C0.658930233,9.28794081 1.21990784,8.700236 1.93290956,8.63358308 L2.06827907,8.62728682 L9.99993023,8.62697626 Z M10.0004439,0.679976255 L9.99993023,1.37997626 L9.78140937,1.38340285 C5.88574881,1.4851675 2.92551377,3.76015792 2.46666355,6.94295248 L2.45393023,7.03584496 L9.99993023,7.03497626 L9.99993023,7.73597626 L1.68650098,7.73627907 L1.74199437,7.09924979 C2.13894578,3.35246631 5.56810636,0.701440012 10.0004439,0.679976255 Z M5.47928514,4.67914937 L5.58806393,4.71948351 L6.06681689,4.9476618 C6.42253135,5.11660407 6.45436888,5.5623874 6.10026521,5.75894225 C5.93530184,5.85050964 5.71059151,5.86928337 5.52058735,5.81615552 L5.41150521,5.77565776 L4.93318311,5.54768446 C4.57736726,5.37869403 4.54545752,4.93234238 4.9003852,4.7363152 C5.06522341,4.64527477 5.28973366,4.62629127 5.47928514,4.67914937 Z M8.74759931,4.65064027 C9.03039187,4.63874967 9.31240118,4.7864182 9.34681017,5.08188488 C9.3829501,5.37773891 9.16001008,5.5640895 8.89695566,5.60757176 L8.80808549,5.61672865 L8.25234367,5.64006107 C7.96955111,5.65195167 7.6875418,5.50428313 7.65290061,5.20687034 C7.61861733,4.9125303 7.84113628,4.72654549 8.10329937,4.6831207 L8.19185749,4.67397268 L8.74759931,4.65064027 Z M8.16328002,2.77560475 C8.46548508,3.00226698 8.38225327,3.37295721 8.09865554,3.53308048 L8.02368892,3.56851928 L7.51932094,3.76443353 C7.30094759,3.84921223 7.01897473,3.82446394 6.83671998,3.68776779 C6.53451492,3.46110556 6.61774673,3.09041532 6.90134446,2.93029206 L6.97631108,2.89485326 L7.48067906,2.698939 C7.69905241,2.6141603 7.98102527,2.6389086 8.16328002,2.77560475 Z M10.0000211,2.66962536 L9.9999988,3.76742778 C9.95417167,3.73897754 9.91267629,3.70268291 9.87776217,3.6591855 L9.8296572,3.58687868 L9.70822183,3.36296767 C9.57856728,3.12376465 9.67277201,2.8274869 9.91382537,2.70398734 C9.94188831,2.68960977 9.97074472,2.67819076 10.0000211,2.66962536 Z" id="Combined-Shape"></path>
</g>
<polygon id="Combined-Shape" fill="#E5012B" points="15.7871309 5 15.787 8.087 18.8742618 8.08713089 18.8742618 8.78713089 15.787 8.787 15.7871309 11.8742618 15.0871309 11.8742618 15.087 8.787 12 8.78713089 12 8.08713089 15.087 8.087 15.0871309 5"></polygon>
</g>
</g>
</g>
</svg>