<svg xmlns="http://www.w3.org/2000/svg" xmlns:xlink="http://www.w3.org/1999/xlink" width="15px" height="16px" viewBox="0 0 15 16" version="1.1" class="cat-nav-img">
<title>Bucket menu 4</title>
<g id="Web" stroke="none" stroke-width="1" fill="none" fill-rule="evenodd">
<g id="outlined" transform="translate(-357.000000, -279.000000)" fill-rule="nonzero">
<g id="Bucket-menu-4" transform="translate(357.000000, 279.000000)">
<polygon id="Combined-Shape-Copy-2" fill="#E5012B" points="11.7871309 5 11.787 8.087 14.8742618 8.08713089 14.8742618 8.78713089 11.787 8.787 11.7871309 11.8742618 11.0871309 11.8742618 11.087 8.787 8 8.78713089 8 8.08713089 11.087 8.087 11.0871309 5"></polygon>
<path d="M3.01731642,0.000843284817 L3.18486209,0.010015992 C4.47622662,0.119977847 5.58311788,0.949216523 6.00125142,2.14139077 L5.99970115,4.5419547 C5.98667935,4.51236772 5.97389299,4.4824382 5.9613526,4.45221958 C5.81731103,4.10512211 5.71161583,3.73621479 5.63760231,3.36772338 L5.59361647,3.12679228 L5.56717066,2.94321469 C5.56412189,2.91804474 5.56172685,2.89574966 5.559947,2.87657203 C5.4118561,1.6326085 4.38194216,0.714120681 3.13406455,0.60786179 C1.7772938,0.49282991 0.660942271,1.66379983 0.86773976,2.95324438 C0.970035142,3.58619706 1.23695888,4.14952078 1.6303284,4.56787848 C1.72372991,4.66572768 1.81784166,4.75189903 1.91520657,4.82778591 L1.996,4.885 L5.99770947,4.88423605 L6,4.881 L6,5.485 L0.933043478,5.48559512 C0.773670399,5.48559512 0.638213795,5.60113009 0.606839849,5.75203384 L0.6,5.8186386 L0.6,6.51429077 C0.6,6.67366385 0.715534969,6.80912045 0.866438725,6.8404944 L0.933043478,6.84733425 L6,6.847 L6,7.447 L1.793,7.447 L2.84394137,14.8336035 C2.86162672,14.9574009 2.96029951,15.0579441 3.08245121,15.0841442 L3.14521739,15.0908125 L6,15.09 L6,15.69 L3.14521739,15.6908125 C2.73494967,15.6908125 2.3775003,15.4122304 2.27224766,15.0261119 L2.249945,14.9182692 L1.18717391,7.44720382 L0.933043478,7.44733425 C0.492890754,7.44733425 0.121784226,7.13910668 0.0247364982,6.72766415 L0.0063027661,6.62277185 L0,6.51429077 L0,5.8186386 C0,5.34180648 0.361739298,4.94600774 0.824562401,4.89189789 L0.933043478,4.88559512 L1.10992712,4.88571327 L1.10737325,4.88373454 C0.676696021,4.38696771 0.388844899,3.75075465 0.275367877,3.0486143 C0.0148083656,1.42394911 1.35230627,-0.0402118741 3.01731642,0.000843284817 Z M1.32344086,2.2479614 L1.89457653,2.43182014 C1.84251865,2.59353186 1.82894149,2.76629429 1.85580963,2.93989676 C1.90557167,3.24924225 2.0331765,3.54403367 2.21632862,3.78009984 L2.31243039,3.89303466 L1.87393482,4.30257297 C1.55695148,3.96317667 1.34018364,3.51235786 1.26314845,3.03343597 C1.23001167,2.81937234 1.23682126,2.60558136 1.28219826,2.40024786 L1.32344086,2.2479614 Z" id="Combined-Shape" fill="#6B6B6B"></path>
</g>
</g>
</g>
</svg>