<svg xmlns="http://www.w3.org/2000/svg" xmlns:xlink="http://www.w3.org/1999/xlink" width="14px" height="16px" viewBox="0 0 14 16" version="1.1" class="cat-nav-img">
<title>sweets_Dessert</title>
<g id="Web" stroke="none" stroke-width="1" fill="none" fill-rule="evenodd">
<g id="outlined" transform="translate(-1006.000000, -129.000000)" fill="#6B6B6B" fill-rule="nonzero">
<g id="sweets_Dessert" transform="translate(1007.000000, 130.000000)">
<path d="M5.79197324,-0.240635452 L4.48093645,-0.240635452 C4.00892422,-0.240635452 3.56118794,-0.0160474778 3.21686633,0.372702727 C2.88393128,0.753193018 2.70047914,1.26324555 2.69516275,1.80020046 C2.69516275,2.89321189 3.48322788,3.77107023 4.47625418,3.77107023 L8.18461538,3.77107023 C8.39010303,3.77107023 8.62107619,3.66759426 8.77811449,3.51055596 C9.0084089,3.28707371 9.15568562,2.94035977 9.15568562,2.54715719 C9.15568562,1.98669315 8.65253809,1.3138796 8.04414716,1.3138796 L7.40128572,1.31404992 C7.16680484,1.3168285 6.88543719,1.28840631 6.60863375,1.19717718 C6.36079767,1.11549513 6.16902264,0.994837853 6.04834376,0.833522203 C5.95661053,0.686530464 5.9267393,0.413196046 5.98167148,0.212857741 L6.01631074,0.119694462 C6.09801114,-0.0464297 5.97710075,-0.240635452 5.79197324,-0.240635452 Z M5.466,0.259 L5.46090249,0.299423059 C5.43477529,0.586196881 5.4969171,0.894627907 5.63660233,1.11648091 C5.83758893,1.38649342 6.11470416,1.56084338 6.4521245,1.67205069 C6.72385585,1.76160816 6.98976932,1.80089099 7.23543163,1.81123676 L7.41565574,1.81390379 L8.04414716,1.8138796 C8.33963873,1.8138796 8.65568562,2.23650044 8.65568562,2.54715719 C8.65568562,2.80488828 8.56335348,3.02225351 8.42721895,3.15438409 C8.35793597,3.22362769 8.25203744,3.27107023 8.18461538,3.27107023 L4.47625418,3.27107023 C3.77211569,3.27107023 3.1951505,2.62837483 3.1951505,1.80267559 C3.19930415,1.38439509 3.34119102,0.989906585 3.59215755,0.70308769 C3.84512571,0.417485345 4.16035371,0.259364548 4.48093645,0.259364548 L5.466,0.259 Z" id="Path"></path>
<path d="M9.65953177,3.27107023 L2.01337793,3.27107023 C1.25724654,3.27107023 0.644314381,3.88400239 0.644314381,4.64013378 L0.644314381,4.68695652 C0.644314381,5.44308791 1.25724654,6.05602007 2.01337793,6.05602007 L9.6548495,6.05602007 C10.4109848,6.05602007 11.0239848,5.44308395 11.0239848,4.68695652 L11.0239848,4.64013378 C11.029629,3.88560609 10.416857,3.27107023 9.65953177,3.27107023 Z M2.01337793,3.77107023 L9.65953177,3.77107023 C10.1397649,3.77107023 10.5275508,4.15997233 10.5239775,4.63825306 L10.5239775,4.68695652 C10.5239775,5.16693708 10.134847,5.55602007 9.6548495,5.55602007 L2.01337793,5.55602007 C1.53338891,5.55602007 1.14431438,5.16694553 1.14431438,4.68695652 L1.14431438,4.64013378 C1.14431438,4.16014477 1.53338891,3.77107023 2.01337793,3.77107023 Z" id="Path"></path>
<path d="M10.7505017,5.56070234 L1.11906355,5.56070234 C0.362932157,5.56070234 -0.25,6.1736345 -0.25,6.92976589 L-0.25,6.97658863 C-0.25,7.73272002 0.362932157,8.34565217 1.11906355,8.34565217 L10.7505017,8.34565217 C11.5066331,8.34565217 12.1195652,7.73272002 12.1195652,6.97658863 L12.1195652,6.92976589 C12.1195652,6.1736345 11.5066331,5.56070234 10.7505017,5.56070234 Z M1.11906355,6.06070234 L10.7505017,6.06070234 C11.2304907,6.06070234 11.6195652,6.44977687 11.6195652,6.92976589 L11.6195652,6.97658863 C11.6195652,7.45657764 11.2304907,7.84565217 10.7505017,7.84565217 L1.11906355,7.84565217 C0.639074532,7.84565217 0.25,7.45657764 0.25,6.97658863 L0.25,6.92976589 C0.25,6.44977687 0.639074532,6.06070234 1.11906355,6.06070234 Z" id="Path"></path>
<path d="M11.2327759,7.84565217 L0.486956522,7.84565217 C0.323333136,7.84565217 0.203817788,8.00023169 0.245007438,8.1585858 L1.78079339,14.0629336 C1.80944904,14.1731006 1.90890966,14.25 2.02274247,14.25 L9.67826087,14.25 C9.79181751,14.25 9.89110979,14.173466 9.92002205,14.0636516 L11.4745371,8.15930381 C11.5162749,8.00077568 11.3967064,7.84565217 11.2327759,7.84565217 Z M10.909,8.345 L9.485,13.749 L2.215,13.749 L0.809,8.345 L10.909,8.345 Z" id="Path"></path>
<path d="M2.77387044,7.8497097 C2.89029639,7.8284742 3.00258295,7.89158379 3.04789038,7.99558591 L3.06467157,8.05079351 L4.14159465,13.9551413 C4.1663694,14.0909716 4.07634111,14.2211677 3.94051083,14.2459425 C3.82408488,14.267178 3.71179832,14.2040684 3.66649089,14.1000663 L3.6497097,14.0448587 L2.57278662,8.14051083 C2.54801187,8.00468056 2.63804016,7.87448445 2.77387044,7.8497097 Z" id="Path"></path>
<path d="M8.95129867,7.84984849 C9.06765892,7.87144112 9.15013125,7.97038255 9.1554561,8.08370003 L9.1514893,8.14126523 L8.05583713,14.0456131 C8.03064573,14.1813667 7.90017401,14.2709951 7.76442039,14.2458037 C7.64806014,14.2242111 7.56558781,14.1252696 7.56026296,14.0119521 L7.56422976,13.9543869 L8.65988194,8.05003912 C8.68147456,7.93367887 8.78041599,7.85120654 8.89373347,7.84588169 L8.95129867,7.84984849 Z" id="Path"></path>
<path d="M5.86070234,7.84565217 C5.97904907,7.84565217 6.07818916,7.92788559 6.10409966,8.03832947 L6.11070234,8.09565217 L6.11070234,14 C6.11070234,14.1380712 5.99877353,14.25 5.86070234,14.25 C5.74235561,14.25 5.64321552,14.1677666 5.61730502,14.0573227 L5.61070234,14 L5.61070234,8.09565217 C5.61070234,7.95758099 5.72263115,7.84565217 5.86070234,7.84565217 Z" id="Path"></path>
</g></g></g></svg>