<svg xmlns="http://www.w3.org/2000/svg" xmlns:xlink="http://www.w3.org/1999/xlink" width="21px" height="14px" viewBox="0 0 21 14" version="1.1" class="cat-nav-img">
<title>sause</title>
<g id="Web" stroke="none" stroke-width="1" fill="none" fill-rule="evenodd">
<g id="outlined" transform="translate(-994.000000, -252.000000)" fill="#6B6B6B" fill-rule="nonzero">
<g id="sause" transform="translate(995.000000, 253.000000)">
<path d="M9.6232,-0.349984416 C11.5424195,-0.349984416 13.4367399,-0.183309121 14.9739481,0.123227067 L15.384,0.21 L15.4201977,0.21073413 L15.4967277,0.218852231 C17.5969387,0.692556501 19.0468093,1.3775791 19.4665767,2.40818647 L19.5245731,2.57448395 C19.5457785,2.6471048 19.5603491,2.70986143 19.5697996,2.76924396 L19.5816261,2.85810323 L19.5924717,3.03966947 C19.5800391,8.16687942 15.1053022,12.3231065 9.62122597,12.3231065 C4.2313687,12.3231065 -0.182998278,8.30865393 -0.345416242,3.30129258 L-0.350020779,3.01705455 L-0.332966682,2.81037465 L-0.305838093,2.6725383 L-0.275157218,2.55987265 C0.0357736576,1.54786487 1.29052391,0.857026808 3.11505091,0.374876168 L3.42949842,0.296811323 L3.486,0.287 L3.85149461,0.20372973 C5.2246764,-0.0937123376 6.84985623,-0.277246684 8.54037614,-0.332374542 L9.10604674,-0.34597481 L9.6232,-0.349984416 Z M9.6232,0.350015584 C7.59900115,0.350015584 5.61440665,0.538414587 3.98351058,0.891122 L3.58333705,0.982708003 L3.549,0.985 L3.31495089,1.04567887 C1.87563148,1.42878289 0.850015583,1.9451181 0.495840273,2.53648054 L0.437363771,2.64822601 L0.396925976,2.75530119 L0.360160457,2.90824683 L0.349,3.039 L0.354534079,3.28860917 C0.504335014,7.73600174 4.31079903,11.3514288 9.07762727,11.6084881 L9.34845529,11.6194349 L9.62122597,11.6231065 C14.6388532,11.6231065 18.7324524,7.90411069 18.8879166,3.29129818 L18.892,3.039 L18.8852563,2.93039171 L18.8696897,2.83419254 L18.8505687,2.76361017 L18.8113568,2.65832368 C18.5074014,1.96621517 17.3280071,1.38209543 15.6341056,0.969299234 L15.3563531,0.905860305 L15.3087175,0.902064762 C13.6829431,0.543576405 11.6687929,0.350015584 9.6232,0.350015584 Z M9.49997922,0.650015584 C14.4285474,0.650015584 18.3264109,1.70097604 18.3499213,3.00638014 C18.3264109,4.29905513 14.4285474,5.35001558 9.49997922,5.35001558 L8.86320142,5.34412097 C4.23979029,5.25814673 0.672525366,4.24229843 0.650037094,2.99365103 C0.673036463,1.72907767 4.40376967,0.695823749 9.18004138,0.65149729 L9.49997922,0.650015584 Z M9.49997922,1.35001558 C5.00321299,1.35001558 1.36219161,2.33172506 1.34992135,2.99365103 C1.36219161,3.66830611 5.00321299,4.65001558 9.49997922,4.65001558 L10.10761,4.64405284 C14.32025,4.56142998 17.6383246,3.63821857 17.6500371,3.00638014 C17.6380457,2.34705813 14.1603721,1.39448014 9.80521831,1.3515217 L9.49997922,1.35001558 Z" id="Stroke-1"></path>
<path d="M9.07373102,2.3284346 C8.42363961,2.47124719 7.98844405,2.54523751 7.50373659,2.59041027 C6.69517057,2.66555004 5.93607479,2.6271553 5.35940876,2.50280266 C5.16620005,2.46113901 5.00457234,2.41160913 4.88670784,2.36048829 L4.80670542,2.3219474 C4.76400138,2.29884035 4.77313066,2.30939527 4.75614928,2.40215464 C4.81881691,2.05877225 4.47223113,1.900736 4.19823851,1.96511685 C3.19337686,2.20971319 2.68743467,2.44359693 2.7043945,2.8926144 C2.72285501,3.38136276 3.44666246,3.6615339 5.07299872,3.95293136 C8.48210384,4.56381578 13.1597973,4.27609738 15.0883681,3.69319359 L15.4186736,3.58725375 C15.9735626,3.3955601 16.2520646,3.20994462 16.2921816,2.90115568 C16.3534987,2.42918654 15.8072459,2.16353434 14.5692171,1.88761624 C13.1302915,1.56658164 12.0967646,1.64536769 10.1178014,2.09001049 L9.07373102,2.3284346 Z M14.4404053,2.4652787 L14.8064124,2.55268197 C15.0870518,2.62487796 15.3069732,2.69534485 15.4676641,2.76311568 L15.653,2.85 L15.4921743,2.9216177 C15.3555176,2.97868206 15.1585551,3.05379477 14.91725,3.12662059 C13.0772529,3.68275326 8.49396785,3.96466472 5.17738571,3.37035969 L4.76099254,3.29070937 C3.78513282,3.09156172 3.29791821,2.89917702 3.30419898,2.86940841 L3.63139614,2.74946074 C3.73995297,2.71148329 3.87221335,2.66792275 4.02425022,2.62383651 L4.225,2.568 L4.23178421,2.58011143 C4.5505953,3.08146065 6.00504219,3.32408352 7.55857882,3.17971387 C8.0065872,3.13796132 8.40989022,3.07379792 8.95188031,2.96003929 L10.5648604,2.59764195 C12.2564,2.23405964 13.1851,2.1852111 14.4404053,2.4652787 Z" id="Stroke-3"></path>
</g></g></g></svg>