<svg width="20px" height="20px" viewBox="0 0 20 20" version="1.1" xmlns="http://www.w3.org/2000/svg" xmlns:xlink="http://www.w3.org/1999/xlink" class="cat-nav-icon suggested-icon">
<g stroke="none" stroke-width="1" fill="none" fill-rule="evenodd">
<g transform="translate(-34.000000, -219.000000)" fill="#2F322C" fill-rule="nonzero">
<path d="M43.7905864,219.979192 C39.1883833,219.979192 35.3205742,223.577723 35.0023367,228.204406 C34.8554579,230.358629 35.5164126,232.488372 36.8628019,234.226438 C38.2091911,235.940024 40.1186158,237.115055 42.2483588,237.482252 C42.7624347,237.580171 43.3009904,237.629131 43.8150662,237.629131 C44.8921776,237.629131 45.9448092,237.433293 46.9484812,237.041616 C47.0708802,236.992656 47.1687994,236.968176 47.2911984,236.968176 C47.4625571,236.968176 47.6583955,237.017136 47.8052743,237.115055 C48.5151886,237.555692 49.469901,237.824969 50.3266941,237.922889 C50.0084567,237.555692 49.7391788,237.139535 49.4209414,236.625459 C49.1761434,236.233782 49.2740626,235.719706 49.6167798,235.401469 C51.3548459,233.859241 52.4074775,231.729498 52.5543563,229.403917 C52.848114,224.924113 49.6412596,220.884945 45.2593747,220.101591 C44.7942584,220.028152 44.2801825,219.979192 43.7905864,219.979192 Z M43.7905864,219 C44.3291421,219 44.8921776,219.04896 45.4552131,219.146879 C50.351174,219.979192 53.9007456,224.458996 53.5580283,229.452876 C53.3866697,232.145655 52.1381997,234.495716 50.2777345,236.135863 C50.7673306,236.968176 51.1345277,237.457772 51.8934016,238.143207 C52.2361189,238.436965 52.0158006,239 51.5751642,239 C51.5262046,239 51.4772449,239 51.4282853,239 C50.1553355,239 48.466229,238.681763 47.2911984,237.971848 C46.1896072,238.388005 45.0145766,238.632803 43.7905864,238.632803 C43.2275509,238.632803 42.6400356,238.583843 42.0525203,238.485924 C37.1810393,237.555692 33.6804273,233.075887 34.0231446,228.130967 C34.3903416,222.892289 38.723267,219 43.7905864,219 Z M46.9971506,226.197062 C47.192989,226.001224 47.4867466,226.001224 47.6825851,226.197062 C47.8784235,226.392901 47.8784235,226.686659 47.6825851,226.882497 L42.7866242,231.778458 C42.688705,231.876377 42.566306,231.925337 42.443907,231.925337 C42.321508,231.925337 42.1991089,231.876377 42.1011897,231.778458 L39.8980073,229.575275 C39.7021689,229.379437 39.7021689,229.085679 39.8980073,228.889841 C40.0938458,228.694002 40.3876034,228.694002 40.5834419,228.889841 L42.443907,230.750306 L46.9971506,226.197062 Z"></path>
</g>
</g>
</svg>