<svg xmlns="http://www.w3.org/2000/svg" xmlns:xlink="http://www.w3.org/1999/xlink" width="12px" height="16px" viewBox="0 0 12 16" version="1.1" class="cat-nav-img">
<title>Fries or Appetizer</title>
<g id="Web" stroke="none" stroke-width="1" fill="none" fill-rule="evenodd">
<g id="outlined" transform="translate(-375.000000, -273.000000)" fill="#6B6B6B" fill-rule="nonzero">
<g id="Fries-or-Appetizer" transform="translate(376.000000, 274.000000)">
<path d="M5.62143325,-0.322513089 L5.621,2.231 L6.721,2.231 L6.72189136,1.10277487 L9.21443063,1.10277487 L9.214,4.789 L10.9162867,4.79080834 L9.41411676,14.3228796 L1.12090487,14.3228796 L-0.407316114,4.78828366 L1.259,4.787 L1.25968586,1.11120419 L3.128,1.111 L3.12889398,-0.322513089 L5.62143325,-0.322513089 Z M2.233,5.487 L0.413,5.488 L1.717,13.622 L8.816,13.622 L10.097,5.49 L8.325,5.488 L8.21042004,5.58786852 C7.98239636,5.77234368 7.73806687,5.93499803 7.4806098,6.07349895 L7.421,6.102 L6.71793194,6.4353463 L6.717,6.398 L6.68468172,6.41051107 C6.41447638,6.4962343 6.13631093,6.55712557 5.85286189,6.59212286 L5.625,6.613 L5.62539267,6.62691099 L4.92143325,6.62691099 L4.921,6.611 L4.69591294,6.59065361 C4.31685498,6.5429201 3.94751235,6.44896861 3.59425159,6.31130969 L3.33242085,6.19990959 C2.98013844,6.03709882 2.64934345,5.83074101 2.34729718,5.58630553 L2.233,5.487 Z M6.717,2.931 L5.625,2.931 L5.625,5.91 L5.76668042,5.8974567 C6.08762777,5.85787976 6.40028672,5.77927826 6.69930565,5.66386165 L6.717,5.655 L6.717,2.931 Z M4.921,0.377 L3.828,0.377 L3.828,5.65 L3.8483745,5.65906732 C4.14827119,5.77593825 4.46175265,5.85568281 4.78354077,5.89619551 L4.921,5.909 L4.921,0.377 Z M8.514,1.802 L7.421,1.802 L7.421,5.294 L7.57157799,5.1943826 C7.63929569,5.14621483 7.70557302,5.09590544 7.77031561,5.04352408 L7.95984487,4.88023365 L8.0603498,4.78809029 L8.514,4.788 L8.514,1.802 Z M2.362,5.138 L2.59912634,4.87978199 C2.7215383,4.99192871 2.85040813,5.09621555 2.98495377,5.19206499 L3.128,5.288 L3.128,1.811 L1.959,1.811 L1.959,4.787 L2.36269634,4.7878534 L2.362,5.138 Z" id="Path"></path>
<path d="M5.2552356,7.83853403 C4.05938575,7.83853403 3.09253927,8.82295954 3.09253927,10.0341885 C3.09253927,11.2454174 4.05938575,12.2298429 5.2552356,12.2298429 C6.45108546,12.2298429 7.41793194,11.2454174 7.41793194,10.0341885 C7.41793194,8.82295954 6.45108546,7.83853403 5.2552356,7.83853403 Z M5.2552356,8.53853403 C6.06163483,8.53853403 6.71793194,9.20676381 6.71793194,10.0341885 C6.71793194,10.8616131 6.06163483,11.5298429 5.2552356,11.5298429 C4.44883638,11.5298429 3.79253927,10.8616131 3.79253927,10.0341885 C3.79253927,9.20676381 4.44883638,8.53853403 5.2552356,8.53853403 Z" id="Oval"></path>
</g>
</g>
</g>
</svg>