<svg xmlns="http://www.w3.org/2000/svg" xmlns:xlink="http://www.w3.org/1999/xlink" width="9px" height="18px" viewBox="0 0 9 18" version="1.1" class="cat-nav-img">
<title>wrap 1</title>
<g id="Web" stroke="none" stroke-width="1" fill="none" fill-rule="evenodd">
<g id="outlined" transform="translate(-620.000000, -271.000000)" fill="#6B6B6B" fill-rule="nonzero">
<g id="wrap-1" transform="translate(620.000000, 271.000000)">
<path d="M3.98470977,0.65 C4.47772199,0.65 4.92934281,0.868690809 5.23471653,1.2246246 L5.333,1.352 L5.46640858,1.30132306 C5.55855327,1.27101832 5.65428322,1.25029851 5.75226858,1.2398525 L5.90077193,1.23197494 C6.49457051,1.23197494 7.00915647,1.60694842 7.2050794,2.14316505 L7.209,2.157 L7.23062826,2.16270211 C7.70577405,2.30973507 8.06911858,2.70399379 8.17588402,3.19172761 C8.35764485,3.29136734 8.4857193,3.48365174 8.4857193,3.71490727 L8.4857193,3.71490727 L8.4857193,16.2821654 C8.4857193,16.8634257 8.01452199,17.3346416 7.43328321,17.3346416 L7.43328321,17.3346416 L1.74257644,17.3346416 C1.16130685,17.3346416 0.690100251,16.863435 0.690100251,16.2821654 L0.690100251,16.2821654 L0.690100251,3.71398496 C0.690100251,3.47832818 0.823151674,3.28307715 1.00978197,3.18450929 C1.08690734,2.54046459 1.6056024,2.03152574 2.25468581,1.96948247 L2.373,1.964 L2.39183178,1.88031787 C2.56439957,1.21672507 3.14061014,0.716034704 3.84269647,0.656040568 L3.98470977,0.65 Z M1.39,3.858 L1.3898296,5.0561713 C1.4000035,5.07897008 1.40781082,5.10305686 1.41293937,5.12811943 L1.42005013,5.19865664 L1.42005013,8.86205514 C1.42005013,8.91283725 1.40923506,8.96109337 1.38978256,9.00464586 L1.39010025,16.2821654 C1.39010025,16.4525019 1.51092041,16.5946141 1.67153932,16.6274807 L1.67153932,16.6274807 L1.74257644,16.6346416 L7.43328321,16.6346416 C7.62791648,16.6346416 7.7857193,16.4768326 7.7857193,16.2821654 L7.7857193,16.2821654 L7.78410025,6.075 L4.48901002,4.94863355 L4.48710025,4.947 L4.48599271,4.94758689 L1.39,3.858 Z M7.785,3.858 L5.66510025,4.611 L7.78410025,5.335 L7.785,3.858 Z M4.60222155,3.3664812 C4.07355126,3.3664812 3.56406363,3.48929657 3.10616737,3.71873912 L4.601,4.246 L6.09241692,3.7156285 C5.63602936,3.4881652 5.12866749,3.3664812 4.60222155,3.3664812 Z M3.98470977,1.35 C3.46231116,1.35 3.03895038,1.77337889 3.03895038,2.2957995 L3.04005016,2.34441299 C3.04836017,2.55839588 2.86677227,2.72279912 2.66450496,2.70723758 L2.58801588,2.69271149 C2.52403307,2.67315671 2.45723782,2.66312281 2.3884391,2.66312281 C2.05044942,2.66312281 1.76926676,2.90673648 1.71080239,3.22800714 L2.25310025,3.419 L2.29261557,3.39039296 C2.96340252,2.92278157 3.76365863,2.6664812 4.60222155,2.6664812 C5.45493816,2.6664812 6.26795587,2.93132829 6.94566422,3.41394098 L7.45840733,3.23270735 C7.36526036,3.00127116 7.14998691,2.8309323 6.89068266,2.80437984 C6.73279609,2.78821243 6.60555122,2.66782937 6.58066519,2.5110804 C6.52805093,2.17968029 6.2404197,1.93197494 5.90077193,1.93197494 C5.72683566,1.93197494 5.56405555,1.99609855 5.43805085,2.11063833 C5.25400637,2.27793695 4.95908608,2.20527213 4.87383075,1.97162126 C4.73875267,1.60142607 4.38552425,1.35 3.98470977,1.35 Z" id="Combined-Shape"></path>
</g>
</g>
</g>
</svg>